<svg xmlns="http://www.w3.org/2000/svg" width="111.229" height="110.994" viewBox="0 0 111.229 110.994">
  <path id="Union_37" data-name="Union 37" d="M6124.894,19055.633a55.524,55.524,0,1,1,71.236-26.291,17.324,17.324,0,1,1-24.311,24.547,55.619,55.619,0,0,1-46.925,1.744Zm-14.809-14.729a51.551,51.551,0,0,0,56.454,11.045c1.013-.43,2.025-.893,3.009-1.389a17.331,17.331,0,0,1,23.229-23.459c.406-.832.8-1.691,1.166-2.561a51.574,51.574,0,0,0-22.136-64.906,37.231,37.231,0,0,1-23.986,65.709,37.534,37.534,0,0,1-4.713-.295,25.564,25.564,0,0,1-35.991,12.631Q6108.526,19039.347,6110.085,19040.9Zm65.4-7.787a13.318,13.318,0,1,0,9.423-3.9A13.226,13.226,0,0,0,6175.484,19033.117Zm-64.395-37.66a21.549,21.549,0,1,0,27.979,28.852,37.279,37.279,0,0,1-27.773-28.937Zm36.732,25.889a33.249,33.249,0,1,0-33.235-33.23q0,1.061.065,2.109a25.568,25.568,0,0,1,29.7,30.943A34.048,34.048,0,0,0,6147.821,19021.346Zm-30.624-20.3a33.344,33.344,0,0,0,17.689,17.689,32.824,32.824,0,0,0,5.511,1.779,21.574,21.574,0,0,0-25.257-26.314A32.953,32.953,0,0,0,6117.2,19001.049Zm9.251-44.008A51.474,51.474,0,0,0,6095,19004.5q0,1.6.1,3.178a25.612,25.612,0,0,1,15.629-16.365q-.134-1.582-.135-3.2a37.212,37.212,0,0,1,18.141-31.973Q6127.58,18956.564,6126.449,18957.041Z" transform="translate(-6090.999 -18949)" fill="#fff"/>
</svg>
